<svg id="Layer_3" enable-background="new 0 0 64 64" height="512" viewBox="0 0 64 64" width="512" xmlns="http://www.w3.org/2000/svg"><path d="m48.816 45h-27.816v2h25c1.302 0 2.402-.839 2.816-2z"/><path d="m43 49h2v8h-2z"/><path d="m15 21h4v32h-4z"/><path d="m21 41v2h39c.551 0 1-.448 1-1s-.449-1-1-1z"/><path d="m57 37.83-14.994-2.812-9.091 1.818c-.137.805-.467 1.538-.941 2.163h25.026z"/><circle cx="28" cy="36" r="3"/><path d="m41 49h-20v5c0 .553-.448 1-1 1h-5v2h26z"/><path d="m3 53h10v4h-10z"/><path d="m13 17h-10v34h10zm-6 8h-2v-2h2zm0-4h-2v-2h2zm4 4h-2v-2h2zm0-4h-2v-2h2z"/><path d="m3 59h58v2h-58z"/><path d="m31 21h26v-14h-26zm4-6h3.382l1.724-3.447c.181-.362.566-.574.965-.55.403.029.75.298.878.681l1.107 3.32 2.008-5.355c.148-.396.498-.649.955-.649.423.008.796.282.93.684l1.772 5.316h4.279v2h-5c-.431 0-.813-.275-.949-.684l-1.107-3.32-2.008 5.355c-.146.391-.52.649-.936.649-.006 0-.012 0-.019 0-.423-.008-.796-.282-.93-.684l-1.236-3.71-.92 1.841c-.17.339-.516.553-.895.553h-4z"/><path d="m27 3v22h34v-22zm32 19c0 .552-.448 1-1 1h-28c-.552 0-1-.448-1-1v-16c0-.552.448-1 1-1h28c.552 0 1 .448 1 1z"/></svg>